<?xml version="1.0" encoding="UTF-8"?><svg id="a" xmlns="http://www.w3.org/2000/svg" viewBox="0 0 975.09 604.24"><path d="M500.94,604.24c-155.07-1.28-332.62-35.6-441.19-156.37C5.2,387.19-17.68,303.34,15.29,226.33c31.62-73.85,99.1-125.77,169.48-160.26C340.52-10.24,535.01-18.45,699.98,31.14c78.5,23.6,156.07,61.91,212.16,123,53.33,58.08,79.54,137.71,51.64,214.12-27.17,74.42-92.16,128.13-160.39,164.06-75.88,39.96-161.8,61.57-246.99,68.35-18.47,1.47-36.99,2.31-55.47,3.57ZM499.53,593.14c93.58-5.22,184.87-17.9,271.16-56.75,76.9-34.62,153.54-90.22,183.21-172.5,61.08-169.36-129.38-285.91-264.81-324.66C529.06-6.54,342.04,1.84,191.16,74.8,123.07,107.72,57.52,157.18,26.25,228.12c-32.34,73.37-11.17,153.58,40.74,211.97,105.4,118.56,281.23,152.37,432.53,153.05Z" fill="#f1f1f1"/><path d="M720.83,366.35c-7.7,5.61-22.87,14.69-28.74,1.31-4.36-9.91,6.13-23.42,9.03-32.55-.47-.44-.94-.88-1.41-1.32-6.9,5.05-10.34,10.44-14.81,17.84-2.92,4.83-7.18,18.91-11.91,21.51-10.37,5.71-8.1-6.59-6.42-11.76,2.88-8.86,6.44-17.36,8.46-26.48-.47-.38-.93-.76-1.4-1.14-7.24,5.32-12.97,10.8-17.73,18.49-3.02,4.88-5.01,17.41-9.39,20.35-3.52,2.36-12.03.91-16.48,1.38-6.95.74-11.21-.24-15.89-5.83-10.39,3.74-23.57,11.4-30.8-1.28-9.94.74-18.68,1.27-28.01,4.71-5.68,2.1-11.33,3.88-17.42,1.96-13.03-4.1-13.57-19.73-7.97-30.15,6.17-11.48,21.3-21.7,34.69-17.63,17.08,5.19,10.08,22.51,6,34.51,11.57-1.54,15.84-16.93,22.68-24.58,8.24-9.23,19.75-14.03,31.38-7.66,2.63-6.29,6.26-22.03,12.07-26.22,8.48-6.12,10.65.71,8.71,7.74-4.86,17.59-21.45,37.5-18.55,56.09,10.33-3.94,15.47-14.07,19.62-24.08,4.39-10.6,6.74-18.65,18.48-11.8,12.58-8.65,18.58-5.19,22.53,3.39,5.54-4.52,12.48-11.04,20.17-6.94,8.43,4.49,4.81,13.1,1.85,19.85-1.55,3.52-9.81,16.14-5.01,19.26,4.78,3.11,12.69-10.69,14.66-13.9,7.99-13.01,17.78-29.58,36.17-26.24,19.02,3.45,13.48,21.46,8.6,34.23,7.74,1.2,14.58-8.34,18.1-25.6-8.29-2.05-4.86-6.11-.22-8.67,6.14-3.38,7.04-4.77,10.9-11.33,2.28-3.87,7.15-12.79,12.94-8.77,5.69,3.95-3.11,15.25-5.13,19.05,4.36.99,4.8,2.05,7.61,5.22-4.46,3.92-9.26,2.45-13.16,6.75-3.94,4.33-5.63,13.9-6.88,19.42-1.72,7.63-.42,12.66,7.36,7.22,6.06-4.23,10.36-13.9,13.31-20.37,3.78-8.3,11.55-43.84,23.2-42.79,11.84,1.06-4.88,26.36-6.89,32.84,6.24-3.77,14.44-10.34,21.89-5.99,8.75,5.11,4.04,13.95.91,20.97-1.61,3.61-9.46,17.51-1.54,18.36,5.58.6,11.6-13.85,13.47-17.22,6.53-11.81,23.01-31.82,39.34-21.86,20.34,12.42-17.67,27.07-26.48,29-1.76,10.68,10.08,10.58,17.58,8.34,10.7-3.18,15.86-12.98,21.04-22.05,2.99-5.24,5.47-10.24,7.55-15.84,1.37-3.69,2.07-9.55,6.22-11.61,9.93-4.94,9.61,5.93,7.45,11.96,15.12,10.63,5.79,15.5,1.26,30.35-5.51,18.05,7.98-1.6,12.05,4.43,6.51,9.64-15.55,16.26-21.98,10.03-9.75-9.45,4.22-25.48,5.8-35.95-.63-.19-1.25-.38-1.88-.57-7.96,12.46-15.3,28.38-28.88,35.58-13.89,7.36-26.01,3.48-39.1-2.59.07-.51.14-1.02.21-1.52-7.01,5.37-22.22,13.36-28.33,2.67-5.23-9.15,5.36-24.9,8.71-33.56-.41-.46-.83-.92-1.24-1.38-10.24,5.1-17.76,13.12-23.24,23.23-3.27,6.04-6.01,22.84-15.96,15.31-9.71,1.23-13.97,1.21-22.41-2.72-6.23-2.9-9.63-2.36-17.39-1.23-15.81,2.31-24.99,10.83-39.31-2.2ZM733.05,356.49c2.04,19.15,20.32-.17,22.37-8.76,1.59-6.65.16-14.21-7.8-12.61-8.59,1.73-13.73,13.96-14.57,21.37ZM539.97,356.5c1.46,19.37,20.23-.49,22.22-8.91,1.63-6.87.03-14.2-8.17-12.28-8.38,1.97-13.54,13.7-14.06,21.19ZM595,360.28c8.99,14.93,27.65-17.9,24.28-23.55-8.58-14.37-23.54,17.73-24.28,23.55ZM875.41,345c.45.62.89,1.25,1.34,1.87,5.49-3.37,12.81-5.85,14.5-12.28-7.38-1-12.59,3.95-15.84,10.41Z" fill="#f1f1f1"/><path d="M272.99,334.75c-9.76,16.48-29.38,55-51.7,32.26-7.46,5.77-19.87,12.73-26.12.88-4.55-8.64,4.17-22.36,7.36-30.31,2.46-6.12,16.22-21.34,15.22-5.68-.77,12.13-11.9,19.86-9.77,33.02,8.67-3.66,12.86-10.46,17.41-18.68,2.85-5.15,5.7-18.45,11.94-20.55,10.71-3.6,6.92,7.49,4.76,12.74-3.9,9.49-8.7,16.82-6.74,27.12,10.73-4.21,17.64-15.17,23.03-25.29,3.76-7.06,4.89-22.61,12.34-26.32,13.03-6.5,6.87,9.01,8.58,13.38,1.26,3.21,7.13,3.75,8.5,7.56,1.19,3.32-.16,5.9-1.3,8.98-1.59,4.29-14.1,23.51-1.95,19.87,8.15-2.45,14.14-18.32,17.84-24.67,3.46-5.94,5.9-18.94,11.06-23.65,9.06-8.27,11.32,4.44,8.7,11.11,5.56,3.69,10.82,6.44,9.99,13.78-.95,8.37-7.29,15.11-8.2,24.21,7.74-3.47,10.86-5.99,15.24-13.64,4-6.98,6.69-19.49,13.94-23.68,10.75-6.2,7.99,5.43,5.07,11.51-4.13,8.6-8.53,16.61-6.66,26.19,10.5-3.32,14.71-12.77,19.33-22.19,1.69-3.45,12.32-26.9,17.9-13.92,2.81,6.53-8.97,27.56-11.29,33.5-3.86,9.9-7.3,20.31-13.63,28.93-5.26,7.16-11.77,13.65-21.18,13.47-4.68-.09-19.58-5.76-13.91-13.08,4.89-6.32,11.98,5.4,18.3,3.23,8.05-2.77,12.59-17.11,14.24-24.15-8.66,4.7-16.25,5.95-21.86-1.81-8.57,3.09-24.09,10.97-28.06-2.63-2.21-7.57,14.02-28.29,5.93-31.64-7.7,13-21.83,43.14-40.93,39.45-24.24-4.69,7.48-35.68-3.4-39.33Z" fill="#f1f1f1"/><path d="M518.07,290c7.75,13.31,7.74,35.88-13.6,34.59-17.64-1.07-14.48-17.4-10.9-29.52-19.23,2.09-35.24,17.96-41.6,35.79-5.13,14.38-3.39,34.55,14.83,37.22,8.51,1.25,17.26-2.64,23.89-7.67,8.33-6.32,13.64-18.72,22.58-23.7,12.47-6.95,7.82,6.33,5.02,13.47-4.52,11.51-8.94,23.11-14.21,34.3-8.27,17.55-20.23,36.21-41.97,35.74-19.88-.43-36.59-13.43-39.73-33.22-1.34-8.41.1-18.24,11.52-14.56,9.25,2.98,15.74,11.2,25.92,13.83,5.07,1.31,16.97,4.43,8.35,11.02-5.76,4.4-26.48-6.23-32.58-8.21,3.54,13.75,18.15,22.61,31.97,19.14,15.61-3.92,26.8-23.62,29.46-38.43-18.71,8.39-41.09,16.3-55.72-4.31-11.45-16.12-4.18-37.85,5.74-52.88,9.37-14.17,23.77-23.6,40.27-27.37,9.47-2.17,20.52-4.95,29.93-6.26,13.11-1.82,11.13,6.71.83,11.04ZM507.86,298.04c-2.95,2.48-10.09,14.96-2.1,15.72,9.13.87,5.52-12.42,2.1-15.72Z" fill="#f1f1f1"/><path d="M605.33,269.86c-1.65-1.14-2.97-2.6-3.96-4.37,32.1-30.26,64.14-60.46,97.1-91.52-13.73-3.46-26.29-6.63-38.86-9.8-.07-.38-.13-.75-.2-1.13,6.72-2.33,13.45-4.68,20.17-6.99,3.85-1.33,16.27-3.44,18.44-7.24,2.35-4.11-2.5-14.68-3.45-18.98-1.45-6.53-3.1-13.04-3.9-19.68,4.38,4.2,8.73,8.43,13.16,12.57,3.83,3.58,11.18,13.62,16.24,14.98,5.74,1.54,11.8-4.07,16.53-6.72,7.28-4.08,14.71-7.88,22.27-11.4-3.05,6.65-6.59,13.05-10.04,19.51-2.28,4.28-9.4,12.93-9.18,17.79.22,4.89,6.74,9.34,9.8,12.59,5.9,6.26,11.71,12.62,17.57,18.92-7.04-1.73-14.07-3.49-21.11-5.2-4.08-.99-15.73-5.83-19.7-3.78-4.24,2.19-5.96,12.88-7.54,16.98-3.15,8.17-6.36,16.32-9.53,24.48-2.28-14.62-4.35-27.87-6.63-42.49-32.99,31.05-65.05,61.23-97.18,91.47Z" fill="#f1f1f1"/><path d="M168.92,334.1c8.27-3.76,25.89-16.11,24.57.35-.87,10.86-10.46,23.67-14.35,6.96-6.62,2.43-11.69,3.38-15.81,8.96-3.53,4.78-5.15,10.68-9.28,15.25-9.9,10.95-25.47,15.4-39.68,11.35-12.49-3.56-23.06-12.35-26.41-25.16-2.47-9.45-2.66-23.44,9.85-23.83,14.27-.45,28.77,9.63,43.18,10.78,18.67,1.49,15.61-13.44,22.78-26.31,2.28-4.08,6.56-12.35,10.97-14.27,3.43-1.49,11.23-1.61,11.76,3.2.3,2.67-9.33,10.92-10.92,13.66-3.38,5.83-5.18,12.55-6.68,19.06ZM100.21,340.46c-6.7,28.22,42.67,37.04,49,8.76-17.11,1.22-33.15-3.35-49-8.76Z" fill="#f1f1f1"/><path d="M141.23,277.48c9.51-11.31,10.61-.62,21.84,1.74,11.65,2.44,26.99,6.95,38.73,3.92,4.06-1.05,10.92-7.76,15.31-6.47,6.81,2,3.12,8.16-.12,11.39-9.67,9.62-25.08,6.88-37.06,4.98-12.22-1.94-21.34-7.86-27.31,4.54-4.63,9.6-11.81,18.19-23.01,19.92-11.93,1.85-21.79-7.11-17.95-19.27,4.04-12.78,19.16-16.79,30.6-19.61-.34-.38-.68-.76-1.02-1.14ZM142.5,289.94c-4.04.77-24.78,7.77-17.92,15.64,6.89,7.9,16.39-11.94,17.92-15.64Z" fill="#f1f1f1"/><path d="M672.03,47.22c0,8.87-2.33,20.74,1,29.09,2.85,7.13,11.15,13.64,16.22,19.23-7.83.82-18.83.05-25.97,3.97-7.64,4.2-13.84,13.83-19.71,20.13-.57-.13-1.14-.25-1.7-.38,0-8.88,2.02-20.61-1.22-29.02-2.9-7.52-10.65-13.55-15.92-19.46,7.73-.91,18.91-.13,25.93-4.01,7.59-4.19,13.72-13.84,19.53-20.13.62.19,1.24.37,1.86.56Z" fill="#f1f1f1"/><path d="M635.49,446.35c-19.55,0-39.1,0-58.65,0-5.42,0-41.63,3.24-43.18-1.52-2.98-9.17,32.5-5.07,38.31-5.07,19.49,0,38.99,0,58.48,0,11.14,0,106.66-4.74,107.97,2.47,1.24,6.85-36.96,4.12-42.44,4.12-20.16,0-40.32,0-60.48,0Z" fill="#f1f1f1"/><path d="M338.99,439.75c19.65,0,39.3,0,58.95,0,5.45,0,41.81-3.26,43.38,1.52,3.01,9.17-32.47,5.07-38.28,5.07-19.49,0-38.99,0-58.48,0-19.49,0-38.99,0-58.48,0-6.1,0-48.26,3.53-49.5-2.45-1.41-6.75,37.83-4.14,43.65-4.14,19.59,0,39.18,0,58.76,0Z" fill="#f1f1f1"/><path d="M748.17,285.37c-6.93,0-15.6-1.57-22.02,1.9-5.85,3.16-9.89,10.28-14.07,15.24-.7-.52-1.41-1.03-2.11-1.55-.49-6.94.68-16.86-2.76-23.2-3.03-5.58-10.38-10.62-14.86-15.06,6.64-.34,15.62.64,21.8-1.76,6.48-2.51,12.6-10.76,17.51-15.47.55,6.84-.31,16.22,2.63,22.64,2.85,6.24,9.86,10.79,14.74,15.37-.29.63-.57,1.26-.86,1.89Z" fill="#f1f1f1"/><path d="M386.58,517.71c9.77,3.37,12.87,2.7,14.03-3.29-8.46,1.2-21.13-1.63-17.22-13.51,2.49-7.55,16.94-10.82,22.66-6.04,3.47,2.9,2.29,21.96-.89,25.91-4.54,5.64-25.83,3.83-18.58-3.07ZM394.97,510.06c8.67-.09,8.34-12.11.06-11.74-7.73.35-7.63,11.33-.06,11.74Z" fill="#f1f1f1"/><path d="M416.18,517.65c9.09,3.46,11.9,2.91,14.61-3.47-9.24,1.9-18.48.21-17.29-11.51.82-8,14.05-13.94,20.8-8.25,4.78,4.03,3.82,22.08-.66,26.72-4.27,4.42-24.96,3.82-17.46-3.47ZM425.17,498.37c-8.68-.05-8.46,11.96-.22,11.69,7.79-.26,7.37-10.43.22-11.69Z" fill="#f1f1f1"/><path d="M632.25,144.83c0,16.08-24.81,15.66-24.44-.36.36-15.48,24.45-15.36,24.44.36Z" fill="#f1f1f1"/><path d="M769.98,249.44c-16.59.11-15.29-26.17,1.23-24.34,14.74,1.63,13.89,24.24-1.23,24.34Z" fill="#f1f1f1"/><path d="M322.83,501.06c0-12.49-.4-15.38,12.37-14.43,8.95.66,16.6,4.06,16.55,14.47-.06,10.25-7.87,14.03-16.89,14.54-12.86.73-12.03-2.35-12.03-14.58ZM328.95,510.85c7.75,0,25.55-6.22,13.84-16.29-2.93-2.52-11.1-3.73-13.44-1.1-2.4,2.71-.41,13.59-.41,17.39Z" fill="#f1f1f1"/><path d="M492.02,486.49c25.12,1.44,20.57,32.73-3.41,29.5-7.44-1-7.52-3.84-7.79-11.28-.45-12.44-2.12-18.22,11.2-18.22ZM486.91,511.9c5.94-1.44,15.33-1.38,16.81-8.93.95-4.83-2.37-8.67-6.4-10.57-14.07-6.62-10.41,11.32-10.41,19.5Z" fill="#f1f1f1"/><path d="M610.33,515.83c-.66,8.88-5.46,9.03-6.4.13-1.05-9.98-3.47-21.76,8.29-22.42,8.91-.5,18.75,4.13,15.47,15.02-2.53,8.43-10.12,8.08-17.37,7.27ZM621.96,504.88c-.25-8.78-12.16-8.05-11.93.42.23,8.59,12.1,8.24,11.93-.42Z" fill="#f1f1f1"/><path d="M596.13,491.98c-6.52-1.12-8.66-2.16-13.82,1.77,4.55,5.35,21.46,7.3,16.04,18.06-3.96,7.87-26.99,4.46-21.07-2.39,6.66,1.5,9.62,2.99,15.42-.55-4.94-5.54-22.07-8.11-15.41-18.82,3.88-6.23,24.27-4.84,18.84,1.93Z" fill="#f1f1f1"/><path d="M440.49,493.5c10.61.39,7.61,10.46,12.66,14.11,4.69-3.49,2.45-12.95,11.62-14.55-1.88,7.68-12.7,42.66-23.93,28.11,4.83-2.48,7.29-.79,8.33-6.31.9-4.79-6.88-17.08-8.68-21.36Z" fill="#f1f1f1"/><path d="M537.54,493.62c10.61.08,7.44,10.59,12.61,13.89,4.89-3.24,2.2-13.06,11.96-14.22-3.07,8.32-11.29,40.73-24.37,28.26,4.74-2.78,7.41-1.21,8.41-6.78.86-4.82-6.79-16.83-8.6-21.16Z" fill="#f1f1f1"/><path d="M646.06,502.19c-3.35-7.58-12.53,1.23-13.34-6.2,6.03-3.77,15.77-3.8,19.02,3.43,1.41,3.14,1.29,12.59-1.28,15.14-9.3,9.24-30.2-8.22-4.4-12.37ZM646.64,509.56c-.09-.55-.18-1.1-.27-1.66-4.28-1.17-5.14-.48-8.96,1.91,4.38,2.84,4.69,2.41,9.23-.25Z" fill="#f1f1f1"/><path d="M367.75,493.63c15.69.13,14.89,23.53-.62,22.98-15.19-.54-14.89-23.11.62-22.98ZM373.75,505.59c.04-8.89-12.48-9.3-12.4-.67.07,8.24,11.49,8.7,12.4.67Z" fill="#f1f1f1"/><path d="M528.69,502.18c-3.36-7.64-12.17,1.15-13.59-5.9,6.01-4.68,16.16-3.78,19.01,3.97,1.19,3.25,1.23,11.84-1.12,14.46-7.26,8.11-32.47-8.08-4.29-12.53ZM529.11,509.82c-.04-.55-.07-1.11-.11-1.66-3.97-1.59-5.05-.58-8.93,1.42,3.83,3.4,4.36,2.47,9.03.24Z" fill="#f1f1f1"/><path d="M669.44,261.59c13.03.22,12.07,20.14-.75,19.65-12.5-.47-12.14-19.87.75-19.65Z" fill="#f1f1f1"/><path d="M797.16,182.39c-12.55-.03-12.58-19.35-.05-19.56,12.71-.21,13.21,19.59.05,19.56Z" fill="#f1f1f1"/><path d="M729.55,100.26c.16,12.93-19.71,12.71-19.73-.04-.02-12.35,19.57-12.59,19.73.04Z" fill="#f1f1f1"/><path d="M487.37,435.8c11.01,0,10.42,15.22-.64,14.49-10.23-.67-10.03-14.5.64-14.49Z" fill="#f1f1f1"/></svg>